<svg width="60" height="60" viewBox="0 0 60 60" fill="none" xmlns="http://www.w3.org/2000/svg">
<g id="decor-element">
<path id="Soft Flower" d="M30 3C22.8346 3 17.026 8.80867 17.026 15.974C17.026 16.555 16.555 17.026 15.974 17.026C8.80867 17.026 3 22.8346 3 30C3 37.1654 8.80867 42.9741 15.974 42.9741C16.555 42.9741 17.026 43.445 17.026 44.0259C17.026 51.1913 22.8346 57 30 57C37.1654 57 42.9741 51.1913 42.9741 44.0259C42.9741 43.445 43.445 42.9741 44.0259 42.9741C51.1913 42.9741 57 37.1654 57 30C57 22.8346 51.1913 17.026 44.0259 17.026C43.445 17.026 42.9741 16.555 42.9741 15.974C42.9741 8.80867 37.1654 3 30 3Z" fill="#9ECA9B"/>
</g>
</svg>
