<svg width="131" height="26" viewBox="0 0 131 26" fill="none" xmlns="http://www.w3.org/2000/svg">
<path d="M35.6729 21.0038L32.0953 7.01891H34.6124L37.0489 16.5805L39.4855 7.01891H41.714L44.1505 16.5805L46.577 7.01891H49.094L45.5366 21.0038H42.7678L40.5897 12.533L38.4417 21.0038H35.6629H35.6729Z" fill="#0D2056"/>
<path d="M53.9671 7.01891H56.7728L61.8574 21.0038H59.2698L58.3703 18.527H52.3763L51.4769 21.0038H48.8893L53.9638 7.01891H53.9671ZM53.2657 16.0871H57.4709L55.3633 10.3213L53.2657 16.0871Z" fill="#0D2056"/>
<path d="M63.5455 21.0038V7.01891H66.1834L72.0868 16.6006V7.01891H74.5233V21.0038H71.8955L65.982 11.4221V21.0038H63.5455Z" fill="#0D2056"/>
<path d="M76.9229 21.0038L79.6414 7.01891H81.6584L85.0649 15.9797L88.4713 7.01891H90.4884L93.2068 21.0038H90.7199L89.0419 12.3518L85.8938 20.685H84.2258L81.0778 12.3518L79.4098 21.0038H76.9229Z" fill="#0D2056"/>
<path d="M99.221 7.01891H102.027L107.111 21.0038H104.524L103.624 18.527H97.6302L96.7307 21.0038H94.1432L99.2176 7.01891H99.221ZM98.5229 16.0871H102.728L100.62 10.3213L98.5229 16.0871Z" fill="#0D2056"/>
<path d="M108.803 21.0038V7.01891H114.169C114.928 7.01891 115.616 7.21021 116.226 7.58945C116.841 7.96869 117.324 8.47547 117.686 9.11313C118.045 9.75079 118.227 10.4522 118.227 11.2275C118.227 11.8618 118.113 12.4424 117.881 12.9693C117.649 13.4962 117.331 13.956 116.921 14.342C116.512 14.7279 116.042 15.0199 115.508 15.2213L118.854 21.0072H116.045L112.81 15.4428H111.243V21.0072H108.806L108.803 21.0038ZM111.239 13.0029H113.887C114.233 13.0029 114.548 12.9156 114.837 12.7444C115.122 12.5699 115.354 12.3384 115.525 12.0464C115.699 11.7544 115.783 11.4255 115.783 11.0664C115.783 10.7073 115.696 10.3717 115.525 10.0763C115.35 9.78435 115.122 9.54942 114.837 9.37826C114.552 9.2071 114.233 9.11984 113.887 9.11984H111.239V13.0062V13.0029Z" fill="#0D2056"/>
<path d="M130.97 21.0038H127.792L123.865 15.52L123.187 16.3288V21.0038H120.75V7.01891H123.187V12.5431L127.812 7.01891H131L125.456 13.6137L130.97 21.0072V21.0038Z" fill="#0D2056"/>
<path d="M13.6568 15.0367C14.0898 15.4528 14.8013 14.8856 14.5831 14.352L11.811 3.98163C11.5995 0.494623 15.845 -1.04919 17.8923 1.92769C19.1877 3.81047 20.1912 6.13625 21.4934 8.01232C21.8692 8.55601 22.3055 8.95203 22.7418 8.20026L22.4566 3.11911C22.8492 0.702705 25.6381 -0.505494 27.6283 1.01818C30.1286 2.93117 28.5446 6.98871 25.4804 6.81083C24.9434 6.78063 24.0239 6.25036 23.648 6.51549C23.4735 6.69001 23.4063 6.89809 23.4063 7.14644C23.4063 8.97217 23.9702 11.3047 23.7856 13.0834C23.6547 14.3688 22.6781 15.5669 21.4195 15.8958C17.9157 16.8087 17.1002 12.8753 15.506 10.7408C15.1033 10.3012 14.412 10.6704 14.5093 11.2476L17.3452 21.7523C17.9527 25.2325 13.489 27.1489 11.4217 24.2224C8.14273 17.9364 3.81334 11.8618 0.631741 5.56571C0.0477772 4.41121 -0.260978 3.61581 0.282713 2.33378C1.22242 0.105318 4.29327 -0.347759 5.81694 1.53502L13.6568 15.0367Z" fill="#0D2056"/>
</svg>
