<svg width="48" height="48" viewBox="0 0 48 48" fill="none" xmlns="http://www.w3.org/2000/svg">
<rect width="48" height="48" fill="#C1D5FF"/>
<path d="M23.6568 25.6935C24.0898 26.1096 24.8013 25.5425 24.5831 25.0088L21.811 14.6384C21.5995 11.1514 25.845 9.60763 27.8923 12.5845C29.1877 14.4673 30.1912 16.7931 31.4934 18.6691C31.8692 19.2128 32.3055 19.6088 32.7418 18.8571L32.4566 13.7759C32.8492 11.3595 35.6381 10.1513 37.6283 11.675C40.1286 13.588 38.5446 17.6455 35.4804 17.4676C34.9434 17.4374 34.0239 16.9072 33.648 17.1723C33.4735 17.3468 33.4063 17.5549 33.4063 17.8033C33.4063 19.629 33.9702 21.9615 33.7856 23.7402C33.6547 25.0256 32.6781 26.2237 31.4195 26.5526C27.9157 27.4655 27.1002 23.5321 25.506 21.3977C25.1033 20.958 24.412 21.3272 24.5093 21.9044L27.3452 32.4091C27.9527 35.8894 23.489 37.8057 21.4217 34.8792C18.1427 28.5932 13.8133 22.5186 10.6317 16.2225C10.0478 15.068 9.73902 14.2726 10.2827 12.9906C11.2224 10.7621 14.2933 10.3091 15.8169 12.1918L23.6568 25.6935Z" fill="#0D2056"/>
</svg>
