<svg width="100" height="100" viewBox="0 0 100 100" fill="none" xmlns="http://www.w3.org/2000/svg">
<g id="&#226;&#150;&#182; Preloader">
<rect width="100" height="100" fill="white"/>
<path id="Vector" d="M48.7537 54.0861C49.7286 55.0232 51.3308 53.746 50.8395 52.5444L44.597 29.1929C44.1209 21.341 53.6812 17.8647 58.2914 24.5679C61.2086 28.8075 63.4683 34.0446 66.4006 38.269C67.2471 39.4932 68.2296 40.385 69.212 38.6922L68.5697 27.2507C69.4539 21.8095 75.7342 19.089 80.2159 22.5199C85.8463 26.8275 82.2792 35.9641 75.3791 35.5635C74.1699 35.4955 72.0991 34.3015 71.2526 34.8985C70.8596 35.2915 70.7085 35.76 70.7085 36.3192C70.7085 40.4303 71.9782 45.6825 71.5625 49.6878C71.2677 52.5822 69.0684 55.2801 66.2344 56.0207C58.3442 58.0762 56.5077 49.2193 52.9179 44.4129C52.011 43.423 50.4541 44.2542 50.6733 45.5541L57.0595 69.2079C58.4274 77.0446 48.3758 81.3598 43.7203 74.77C36.3365 60.6154 26.5872 46.937 19.4226 32.7598C18.1076 30.1602 17.4123 28.3691 18.6366 25.4823C20.7528 20.4644 27.668 19.4442 31.0991 23.6837L48.7537 54.0861Z" fill="#0D2056"/>
</g>
</svg>
