<svg width="52" height="52" viewBox="0 0 52 52" fill="none" xmlns="http://www.w3.org/2000/svg">
<g id="decor-element">
<path id="Eye" fill-rule="evenodd" clip-rule="evenodd" d="M49.2776 25.9999C49.2776 25.9999 38.8559 40.5599 26.0001 40.5599C13.1444 40.5599 2.72266 25.9999 2.72266 25.9999C2.72266 25.9999 13.1444 11.4399 26.0001 11.4399C38.8559 11.4399 49.2776 25.9999 49.2776 25.9999ZM36.6241 25.9999C36.6241 31.8505 31.8677 36.5933 26.0001 36.5933C20.1325 36.5933 15.3761 31.8505 15.3761 25.9999C15.3761 20.1494 20.1325 15.4065 26.0001 15.4065C31.8677 15.4065 36.6241 20.1494 36.6241 25.9999ZM26.0001 32.0703C29.3624 32.0703 32.088 29.3525 32.088 25.9999C32.088 22.6474 29.3624 19.9296 26.0001 19.9296C22.6378 19.9296 19.9122 22.6474 19.9122 25.9999C19.9122 29.3525 22.6378 32.0703 26.0001 32.0703Z" fill="#FFC3A0"/>
</g>
</svg>
