<svg width="1209" height="326" viewBox="0 0 1209 326" fill="none" xmlns="http://www.w3.org/2000/svg">
<rect width="1200" height="318" transform="translate(9)" fill="#FAFAFA"/>
<g clip-path="url(#clip0_4227_4714)">
<path fill-rule="evenodd" clip-rule="evenodd" d="M147.17 277.761C153 293.238 145.826 310.721 130.613 317.566L105.426 259.82C120.792 253.328 138.486 259.964 145.863 274.766C140.11 259.493 147.02 242.267 161.823 235.237L186.999 292.957C171.776 299.023 154.449 292.368 147.17 277.761Z" fill="#FFC1C2"/>
</g>
<path d="M63.3105 228.907C63.6788 226.856 61.0561 225.679 59.7689 227.319L27.6067 268.279C26.5762 269.591 27.5111 271.514 29.1797 271.514H40.9716C42.2176 271.514 43.1603 272.641 42.9401 273.867L37.6919 303.093C37.3235 305.144 39.9463 306.321 41.2334 304.681L73.3957 263.721C74.4262 262.409 73.4912 260.486 71.8227 260.486H60.0308C58.7847 260.486 57.842 259.359 58.0623 258.133L63.3105 228.907Z" fill="#C1D5FF"/>
<g clip-path="url(#clip1_4227_4714)">
<path d="M288.103 271.038L329.91 237.234C338.949 245.942 329.173 257.698 337.064 267.458C344.955 277.217 358.497 270.118 365.121 280.779L323.314 314.584C314.275 305.876 324.052 294.119 316.16 284.36C308.269 274.601 294.727 281.7 288.103 271.038Z" fill="#AD9FFF"/>
</g>
<path d="M246 273C241.223 273 237.351 276.872 237.351 281.649C237.351 282.037 237.037 282.351 236.649 282.351C231.872 282.351 228 286.223 228 291C228 295.777 231.872 299.649 236.649 299.649C237.037 299.649 237.351 299.963 237.351 300.351C237.351 305.128 241.223 309 246 309C250.777 309 254.649 305.128 254.649 300.351C254.649 299.963 254.963 299.649 255.351 299.649C260.128 299.649 264 295.777 264 291C264 286.223 260.128 282.351 255.351 282.351C254.963 282.351 254.649 282.037 254.649 281.649C254.649 276.872 250.777 273 246 273Z" fill="#FFC1F9"/>
<path d="M1107.52 293.905C1110.27 295.899 1113.45 296.861 1116.62 296.861C1121.38 296.861 1126.08 294.681 1129.1 290.585C1129.11 290.576 1129.12 290.567 1129.13 290.558C1129.13 290.548 1129.14 290.538 1129.15 290.529L1129.16 290.514C1129.17 290.504 1129.17 290.494 1129.18 290.484L1139.88 275.769L1150.58 290.484C1150.59 290.5 1150.6 290.512 1150.61 290.526C1150.62 290.532 1150.62 290.539 1150.63 290.546C1155.67 297.412 1165.36 298.924 1172.25 293.913C1179.15 288.902 1180.69 279.213 1175.72 272.293L1175.7 272.276C1175.7 272.261 1175.69 272.251 1175.68 272.239L1165 257.515L1182.3 251.884C1190.43 249.239 1194.89 240.465 1192.25 232.335C1189.6 224.205 1180.84 219.737 1172.71 222.375L1155.41 227.983L1155.4 209.777C1155.39 201.228 1148.43 194.27 1139.89 194.27C1131.34 194.27 1124.39 201.228 1124.38 209.785L1124.36 227.976L1107.06 222.367C1107.06 222.367 1107.05 222.366 1107.04 222.363C1107.03 222.36 1107.02 222.356 1107.01 222.352C1098.89 219.745 1090.16 224.213 1087.52 232.328C1084.89 240.442 1089.32 249.184 1097.41 251.853C1097.42 251.855 1097.42 251.858 1097.43 251.861L1097.46 251.871L1097.47 251.876L1114.76 257.508L1104.09 272.231C1104.08 272.239 1104.08 272.247 1104.07 272.255C1104.07 272.262 1104.06 272.27 1104.06 272.278C1099.07 279.197 1100.62 288.894 1107.52 293.905Z" fill="#FFC3A0"/>
<g clip-path="url(#clip2_4227_4714)">
<path d="M1060.09 246.151L1039.73 225.793L1024.35 241.174L1044.71 261.531C1048.59 265.416 1048.64 271.667 1044.85 275.461C1041.06 279.254 1034.8 279.203 1030.92 275.318L1010.56 254.961L995.183 270.341L1015.54 290.699C1028.05 303.213 1048.23 303.42 1060.52 291.13C1072.81 278.84 1072.6 258.666 1060.09 246.151Z" fill="#AD9FFF"/>
</g>
<path fill-rule="evenodd" clip-rule="evenodd" d="M992.503 175.5C999.032 175.5 1004.32 180.795 1004.32 187.327C1004.32 193.859 999.032 199.155 992.503 199.155C985.974 199.155 980.682 193.859 980.682 187.327C980.682 180.795 985.974 175.5 992.503 175.5ZM972.754 236.24C967.472 232.401 966.301 225.004 970.139 219.72C973.976 214.435 981.369 213.264 986.651 217.103C991.933 220.943 993.104 228.339 989.266 233.624C985.429 238.908 978.036 240.08 972.754 236.24ZM1014.91 219.72C1018.74 225.004 1017.57 232.401 1012.29 236.24C1007.01 240.08 999.616 238.908 995.779 233.624C991.941 228.339 993.112 220.943 998.394 217.103C1003.68 213.264 1011.07 214.435 1014.91 219.72ZM960.531 198.683C962.549 192.471 969.218 189.071 975.427 191.089C981.637 193.108 985.035 199.78 983.017 205.993C981 212.205 974.33 215.605 968.121 213.586C961.912 211.568 958.513 204.895 960.531 198.683ZM1009.57 191.089C1015.78 189.071 1022.45 192.471 1024.47 198.683C1026.48 204.895 1023.09 211.568 1016.88 213.586C1010.67 215.605 1004 212.205 1001.98 205.993C999.964 199.78 1003.36 193.108 1009.57 191.089Z" fill="#C1D5FF"/>
<g clip-path="url(#clip3_4227_4714)">
<path fill-rule="evenodd" clip-rule="evenodd" d="M952.513 297.543C955.09 280.36 943.31 264.319 926.153 261.683C943.348 264.325 959.433 252.501 962.08 235.274C959.503 252.458 971.283 268.498 988.44 271.134C971.245 268.493 955.16 280.317 952.513 297.543Z" fill="#FFDE7D"/>
</g>
<g clip-path="url(#clip4_4227_4714)">
<path fill-rule="evenodd" clip-rule="evenodd" d="M841.944 238.123L823.203 228.792L813.814 247.651L804.425 266.509L823.165 275.84L813.776 294.698L832.517 304.029L841.906 285.17L851.295 266.312L832.555 256.981L841.944 238.123Z" fill="#C1D5FF"/>
</g>
<g clip-path="url(#clip5_4227_4714)">
<path fill-rule="evenodd" clip-rule="evenodd" d="M924.995 264.845C924.995 264.845 917.424 285.541 902.176 289.769C886.929 293.997 869.781 280.156 869.781 280.156C869.781 280.156 877.353 259.46 892.6 255.232C907.847 251.004 924.995 264.845 924.995 264.845ZM909.988 269.007C911.912 275.946 907.831 283.135 900.872 285.065C893.913 286.994 886.712 282.933 884.788 275.995C882.864 269.056 886.945 261.866 893.904 259.937C900.863 258.007 908.064 262.068 909.988 269.007ZM899.384 279.7C903.372 278.594 905.711 274.475 904.608 270.499C903.506 266.522 899.379 264.195 895.392 265.301C891.404 266.407 889.065 270.527 890.168 274.503C891.27 278.479 895.397 280.806 899.384 279.7Z" fill="#FFC1F9"/>
</g>
<g clip-path="url(#clip6_4227_4714)">
<path d="M452.578 229.308L441.133 220.35L405.298 266.132L451.08 301.967L460.038 290.521L448.593 281.563L457.552 270.117L446.106 261.158L455.065 249.713L443.62 240.754L452.578 229.308Z" fill="#FFDE7D"/>
</g>
<defs>
<clipPath id="clip0_4227_4714">
<rect width="70" height="70" fill="white" transform="translate(100 257.986) rotate(-23.5656)"/>
</clipPath>
<clipPath id="clip1_4227_4714">
<rect width="70" height="70" fill="white" transform="translate(277 271.014) rotate(-38.9587)"/>
</clipPath>
<clipPath id="clip2_4227_4714">
<rect width="70" height="70" fill="white" transform="translate(1038.88 219.5) rotate(45)"/>
</clipPath>
<clipPath id="clip3_4227_4714">
<rect width="70" height="70" fill="white" transform="translate(928.016 226.5) rotate(8.73423)"/>
</clipPath>
<clipPath id="clip4_4227_4714">
<rect width="79" height="79" fill="white" transform="translate(809.211 213) rotate(26.4676)"/>
</clipPath>
<clipPath id="clip5_4227_4714">
<rect width="64" height="64" fill="white" transform="translate(858 250.215) rotate(-15.4984)"/>
</clipPath>
<clipPath id="clip6_4227_4714">
<rect width="64.599" height="64.599" fill="white" transform="translate(440.816 216) rotate(38.0515)"/>
</clipPath>
</defs>
</svg>
