<svg width="60" height="61" viewBox="0 0 60 61" fill="none" xmlns="http://www.w3.org/2000/svg">
<g id="decor-element">
<path id="Soft Flower" d="M30 3.5C22.8346 3.5 17.026 9.30867 17.026 16.474C17.026 17.055 16.555 17.526 15.974 17.526C8.80867 17.526 3 23.3346 3 30.5C3 37.6654 8.80867 43.4741 15.974 43.4741C16.555 43.4741 17.026 43.945 17.026 44.5259C17.026 51.6913 22.8346 57.5 30 57.5C37.1654 57.5 42.9741 51.6913 42.9741 44.5259C42.9741 43.945 43.445 43.4741 44.0259 43.4741C51.1913 43.4741 57 37.6654 57 30.5C57 23.3346 51.1913 17.526 44.0259 17.526C43.445 17.526 42.9741 17.055 42.9741 16.474C42.9741 9.30867 37.1654 3.5 30 3.5Z" fill="#A2C0FF"/>
</g>
</svg>
