<svg width="268" height="190" viewBox="0 0 268 190" fill="none" xmlns="http://www.w3.org/2000/svg">
<g clip-path="url(#clip0_4212_4459)">
<path fill-rule="evenodd" clip-rule="evenodd" d="M61.0946 132.687C66.9243 148.164 59.7509 165.647 44.5379 172.492L19.3506 114.746C34.7173 108.253 52.4113 114.89 59.7881 129.692C54.0351 114.419 60.9451 97.1926 75.7475 90.163L100.923 147.883C85.7009 153.949 68.3741 147.294 61.0946 132.687Z" fill="#FFC1C2"/>
</g>
<g clip-path="url(#clip1_4212_4459)">
<path d="M161.321 57.6526L144.699 44.6426L92.6589 111.128L159.144 163.168L172.154 146.547L155.533 133.537L168.543 116.915L151.922 103.905L164.932 87.284L148.31 74.274L161.321 57.6526Z" fill="#FFDE7D"/>
</g>
<path d="M63.3095 12.9073C63.6779 10.856 61.0551 9.67945 59.768 11.3187L27.6057 52.2787C26.5752 53.591 27.5102 55.5138 29.1787 55.5138H40.9706C42.2167 55.5138 43.1594 56.6409 42.9391 57.8673L37.6909 87.0927C37.3226 89.144 39.9453 90.3206 41.2325 88.6813L73.3947 47.7213C74.4252 46.409 73.4903 44.4862 71.8217 44.4862H60.0298C58.7838 44.4862 57.8411 43.3591 58.0613 42.1327L63.3095 12.9073Z" fill="#C1D5FF"/>
<g clip-path="url(#clip2_4212_4459)">
<path d="M180.102 135.038L221.909 101.234C230.948 109.942 221.172 121.698 229.063 131.458C236.954 141.217 250.496 134.118 257.12 144.779L215.313 178.584C206.274 169.876 216.051 158.119 208.159 148.36C200.268 138.601 186.726 145.7 180.102 135.038Z" fill="#AD9FFF"/>
</g>
<path d="M106 2C101.223 2 97.3507 5.87244 97.3507 10.6493C97.3507 11.0367 97.0367 11.3507 96.6493 11.3507C91.8724 11.3507 88 15.2231 88 20C88 24.7769 91.8724 28.6494 96.6493 28.6494C97.0367 28.6494 97.3507 28.9633 97.3507 29.3506C97.3507 34.1275 101.223 38 106 38C110.777 38 114.649 34.1275 114.649 29.3506C114.649 28.9633 114.963 28.6494 115.351 28.6494C120.128 28.6494 124 24.7769 124 20C124 15.2231 120.128 11.3507 115.351 11.3507C114.963 11.3507 114.649 11.0367 114.649 10.6493C114.649 5.87244 110.777 2 106 2Z" fill="#FFC1F9"/>
<defs>
<clipPath id="clip0_4212_4459">
<rect width="70" height="70" fill="white" transform="translate(13.9258 112.912) rotate(-23.5656)"/>
</clipPath>
<clipPath id="clip1_4212_4459">
<rect width="93.8114" height="93.8114" fill="white" transform="translate(143.822 38) rotate(38.0515)"/>
</clipPath>
<clipPath id="clip2_4212_4459">
<rect width="70" height="70" fill="white" transform="translate(169 135.014) rotate(-38.9587)"/>
</clipPath>
</defs>
</svg>
