<svg width="339" height="176" viewBox="0 0 339 176" fill="none" xmlns="http://www.w3.org/2000/svg">
<path d="M250.136 151.405C252.881 153.398 256.068 154.36 259.232 154.36C263.994 154.36 268.693 152.181 271.717 148.084C271.726 148.076 271.734 148.067 271.742 148.057C271.749 148.048 271.756 148.038 271.763 148.028L271.773 148.013C271.781 148.003 271.788 147.993 271.794 147.984L282.496 133.268L293.197 147.984C293.208 148 293.219 148.012 293.229 148.026C293.234 148.032 293.239 148.038 293.244 148.046C298.284 154.911 307.97 156.424 314.864 151.412C321.765 146.401 323.308 136.712 318.33 129.793L318.319 129.776C318.31 129.761 318.302 129.75 318.291 129.739L307.613 115.015L324.913 109.383C333.04 106.738 337.507 97.9646 334.862 89.8346C332.218 81.705 323.456 77.2368 315.321 79.8743L298.021 85.483L298.013 67.2764C298.005 58.7278 291.049 51.7695 282.504 51.7695C273.958 51.7695 267.002 58.7278 266.995 67.2842L266.979 85.4752L249.679 79.8666C249.672 79.8666 249.663 79.865 249.655 79.8627C249.644 79.8598 249.633 79.8554 249.624 79.851C241.505 77.2446 232.774 81.7128 230.137 89.8273C227.5 97.9413 231.936 106.684 240.024 109.352C240.032 109.355 240.038 109.357 240.045 109.36L240.073 109.371L240.086 109.376L257.379 115.007L246.701 129.731C246.697 129.739 246.691 129.746 246.685 129.754C246.679 129.762 246.674 129.77 246.67 129.777C241.684 136.697 243.234 146.394 250.136 151.405Z" fill="#FFC3A0"/>
<g clip-path="url(#clip0_4212_4465)">
<path d="M202.703 103.65L182.346 83.293L166.966 98.6731L187.323 119.03C191.208 122.915 191.259 129.167 187.466 132.961C183.672 136.754 177.42 136.703 173.535 132.818L153.178 112.461L137.798 127.841L158.155 148.198C170.67 160.713 190.845 160.919 203.135 148.63C215.424 136.34 215.218 116.165 202.703 103.65Z" fill="#AD9FFF"/>
</g>
<path fill-rule="evenodd" clip-rule="evenodd" d="M216.504 4C223.033 4 228.326 9.29529 228.326 15.8274C228.326 22.3594 223.033 27.6547 216.504 27.6547C209.975 27.6547 204.683 22.3594 204.683 15.8274C204.683 9.29529 209.975 4 216.504 4ZM196.755 64.7402C191.473 60.9009 190.302 53.5044 194.139 48.2198C197.977 42.9352 205.37 41.7638 210.652 45.6033C215.934 49.4426 217.105 56.8392 213.267 62.1238C209.43 67.4084 202.037 68.5798 196.755 64.7402ZM238.907 48.2198C242.745 53.5044 241.574 60.9009 236.292 64.7402C231.01 68.5798 223.617 67.4084 219.78 62.1238C215.942 56.8392 217.113 49.4426 222.395 45.6033C227.677 41.7638 235.07 42.9352 238.907 48.2198ZM184.532 27.1828C186.55 20.9705 193.219 17.5707 199.428 19.5892C205.637 21.6078 209.036 28.2803 207.018 34.4926C205.001 40.7049 198.331 44.1047 192.122 42.0861C185.913 40.0676 182.514 33.3953 184.532 27.1828ZM233.572 19.5892C239.782 17.5707 246.451 20.9705 248.468 27.1828C250.486 33.3953 247.088 40.0676 240.879 42.0861C234.669 44.1047 228 40.7049 225.982 34.4926C223.965 28.2803 227.363 21.6078 233.572 19.5892Z" fill="#C1D5FF"/>
<g clip-path="url(#clip1_4212_4465)">
<path fill-rule="evenodd" clip-rule="evenodd" d="M95.1257 155.044C97.7019 137.86 85.9224 121.819 68.7654 119.184C85.9606 121.825 102.046 110.001 104.692 92.7745C102.116 109.958 113.896 125.999 131.053 128.635C113.857 125.993 97.7723 137.817 95.1257 155.044Z" fill="#FFDE7D"/>
</g>
<path fill-rule="evenodd" clip-rule="evenodd" d="M127.5 25.9004H106.565V46.9671V68.0337H127.5V89.1004H148.435V68.0337V46.9671H127.5V25.9004Z" fill="#C1D5FF"/>
<g clip-path="url(#clip2_4212_4465)">
<path fill-rule="evenodd" clip-rule="evenodd" d="M67.6078 122.345C67.6078 122.345 60.036 143.041 44.7888 147.269C29.5417 151.497 12.3929 137.656 12.3929 137.656C12.3929 137.656 19.9648 116.96 35.2119 112.732C50.4591 108.504 67.6078 122.345 67.6078 122.345ZM52.6006 126.507C54.5247 133.446 50.4433 140.635 43.4843 142.565C36.5252 144.494 29.3242 140.433 27.4001 133.495C25.476 126.556 29.5574 119.366 36.5164 117.437C43.4755 115.507 50.6765 119.568 52.6006 126.507ZM41.9967 137.2C45.9845 136.094 48.3233 131.975 47.2207 127.999C46.1182 124.022 41.9918 121.695 38.004 122.801C34.0162 123.907 31.6774 128.027 32.78 132.003C33.8825 135.979 38.0089 138.306 41.9967 137.2Z" fill="#FFC1F9"/>
</g>
<defs>
<clipPath id="clip0_4212_4465">
<rect width="70" height="70" fill="white" transform="translate(181.497 77) rotate(45)"/>
</clipPath>
<clipPath id="clip1_4212_4465">
<rect width="70" height="70" fill="white" transform="translate(70.6299 84) rotate(8.73423)"/>
</clipPath>
<clipPath id="clip2_4212_4465">
<rect width="64" height="64" fill="white" transform="translate(0.613281 107.715) rotate(-15.4984)"/>
</clipPath>
</defs>
</svg>
