<svg width="353" height="208" viewBox="0 0 353 208" fill="none" xmlns="http://www.w3.org/2000/svg">
<g clip-path="url(#clip0_4212_4428)">
<path fill-rule="evenodd" clip-rule="evenodd" d="M47.1678 145.687C52.9976 161.164 45.8241 178.647 30.6111 185.492L5.42383 127.746C20.7905 121.254 38.4845 127.89 45.8613 142.692C40.1083 127.419 47.0183 110.193 61.8207 103.163L86.9966 160.883C71.7741 166.949 54.4474 160.294 47.1678 145.687Z" fill="#FFC1C2"/>
</g>
<g clip-path="url(#clip1_4212_4428)">
<path d="M166.178 148.038L207.984 114.233C217.023 122.942 207.247 134.698 215.138 144.457C223.029 154.217 236.571 147.118 243.195 157.779L201.388 191.584C192.35 182.875 202.126 171.119 194.234 161.36C186.343 151.601 172.801 158.699 166.178 148.038Z" fill="#AD9FFF"/>
</g>
<path d="M130.074 111C125.297 111 121.425 114.872 121.425 119.649C121.425 120.037 121.111 120.351 120.724 120.351C115.947 120.351 112.074 124.223 112.074 129C112.074 133.777 115.947 137.649 120.724 137.649C121.111 137.649 121.425 137.963 121.425 138.351C121.425 143.128 125.297 147 130.074 147C134.851 147 138.724 143.128 138.724 138.351C138.724 137.963 139.038 137.649 139.425 137.649C144.202 137.649 148.074 133.777 148.074 129C148.074 124.223 144.202 120.351 139.425 120.351C139.038 120.351 138.724 120.037 138.724 119.649C138.724 114.872 134.851 111 130.074 111Z" fill="#FFC1F9"/>
<g clip-path="url(#clip2_4212_4428)">
<path fill-rule="evenodd" clip-rule="evenodd" d="M325.07 160.845C325.07 160.845 317.498 181.541 302.251 185.769C287.004 189.997 269.855 176.156 269.855 176.156C269.855 176.156 277.427 155.46 292.674 151.232C307.921 147.004 325.07 160.845 325.07 160.845ZM310.062 165.006C311.987 171.945 307.905 179.135 300.946 181.064C293.987 182.994 286.786 178.933 284.862 171.994C282.938 165.056 287.019 157.866 293.978 155.937C300.937 154.007 308.138 158.068 310.062 165.006ZM299.459 175.7C303.446 174.594 305.785 170.474 304.683 166.498C303.58 162.522 299.454 160.195 295.466 161.301C291.478 162.407 289.139 166.526 290.242 170.503C291.344 174.479 295.471 176.806 299.459 175.7Z" fill="#FFC1F9"/>
</g>
<g clip-path="url(#clip3_4212_4428)">
<path d="M296.395 19.6529L279.773 6.64282L227.733 73.128L294.218 125.168L307.228 108.547L290.607 95.5369L303.617 78.9156L286.996 65.9056L300.006 49.2843L283.385 36.2742L296.395 19.6529Z" fill="#FFDE7D"/>
</g>
<defs>
<clipPath id="clip0_4212_4428">
<rect width="70" height="70" fill="white" transform="translate(0 125.912) rotate(-23.5656)"/>
</clipPath>
<clipPath id="clip1_4212_4428">
<rect width="70" height="70" fill="white" transform="translate(155.074 148.014) rotate(-38.9587)"/>
</clipPath>
<clipPath id="clip2_4212_4428">
<rect width="64" height="64" fill="white" transform="translate(258.074 146.215) rotate(-15.4984)"/>
</clipPath>
<clipPath id="clip3_4212_4428">
<rect width="93.8114" height="93.8114" fill="white" transform="translate(278.896) rotate(38.0515)"/>
</clipPath>
</defs>
</svg>
