<svg width="280" height="176" viewBox="0 0 280 176" fill="none" xmlns="http://www.w3.org/2000/svg">
<path d="M190.598 150.905C193.343 152.899 196.53 153.861 199.694 153.861C204.456 153.861 209.155 151.681 212.179 147.585C212.187 147.576 212.196 147.567 212.203 147.558C212.211 147.548 212.218 147.538 212.225 147.529L212.235 147.514C212.243 147.504 212.25 147.494 212.256 147.484L222.958 132.769L233.659 147.484C233.67 147.5 233.681 147.512 233.691 147.526C233.696 147.532 233.701 147.539 233.706 147.546C238.746 154.412 248.432 155.924 255.326 150.913C262.227 145.902 263.77 136.213 258.792 129.293L258.781 129.276C258.772 129.261 258.764 129.251 258.753 129.239L248.075 114.515L265.375 108.884C273.502 106.239 277.969 97.4651 275.324 89.3351C272.68 81.2055 263.917 76.7373 255.783 79.3748L238.483 84.9835L238.475 66.7769C238.467 58.2283 231.511 51.27 222.965 51.27C214.42 51.27 207.464 58.2283 207.456 66.7847L207.441 84.9757L190.14 79.367C190.134 79.367 190.125 79.3655 190.117 79.3632C190.106 79.3602 190.095 79.3559 190.086 79.3515C181.967 76.7451 173.235 81.2132 170.599 89.3278C167.962 97.4418 172.398 106.184 180.486 108.853C180.493 108.855 180.5 108.858 180.507 108.861L180.535 108.871L180.548 108.876L197.841 114.508L187.163 129.231C187.159 129.239 187.153 129.247 187.147 129.255C187.141 129.262 187.136 129.27 187.132 129.278C182.145 136.197 183.696 145.894 190.598 150.905Z" fill="#FFC3A0"/>
<g clip-path="url(#clip0_4212_4427)">
<path d="M143.162 103.151L122.805 82.7932L107.425 98.1733L127.782 118.531C131.667 122.415 131.718 128.667 127.925 132.461C124.131 136.254 117.879 136.203 113.994 132.318L93.6371 111.961L78.257 127.341L98.6144 147.698C111.129 160.213 131.304 160.42 143.594 148.13C155.883 135.84 155.677 115.665 143.162 103.151Z" fill="#AD9FFF"/>
</g>
<path fill-rule="evenodd" clip-rule="evenodd" d="M156.964 3.5C163.493 3.5 168.786 8.79529 168.786 15.3274C168.786 21.8594 163.493 27.1547 156.964 27.1547C150.435 27.1547 145.143 21.8594 145.143 15.3274C145.143 8.79529 150.435 3.5 156.964 3.5ZM137.215 64.2402C131.933 60.4009 130.762 53.0044 134.599 47.7198C138.437 42.4352 145.83 41.2638 151.112 45.1033C156.394 48.9426 157.565 56.3392 153.727 61.6238C149.89 66.9084 142.497 68.0798 137.215 64.2402ZM179.367 47.7198C183.205 53.0044 182.034 60.4009 176.752 64.2402C171.47 68.0798 164.077 66.9084 160.24 61.6238C156.402 56.3392 157.573 48.9426 162.855 45.1033C168.137 41.2638 175.53 42.4352 179.367 47.7198ZM124.992 26.6828C127.009 20.4705 133.679 17.0707 139.888 19.0892C146.097 21.1078 149.496 27.7803 147.478 33.9926C145.461 40.2049 138.791 43.6047 132.582 41.5861C126.373 39.5676 122.974 32.8953 124.992 26.6828ZM174.032 19.0892C180.242 17.0707 186.911 20.4705 188.928 26.6828C190.946 32.8953 187.548 39.5676 181.338 41.5861C175.129 43.6047 168.46 40.2049 166.442 33.9926C164.425 27.7803 167.823 21.1078 174.032 19.0892Z" fill="#C1D5FF"/>
<g clip-path="url(#clip1_4212_4427)">
<path fill-rule="evenodd" clip-rule="evenodd" d="M35.5856 154.544C38.1619 137.36 26.3823 121.319 9.2254 118.683C26.4206 121.325 42.5057 109.501 45.1523 92.2743C42.5758 109.458 54.3556 125.499 71.5125 128.135C54.317 125.493 38.2323 137.317 35.5856 154.544Z" fill="#FFDE7D"/>
</g>
<path fill-rule="evenodd" clip-rule="evenodd" d="M67.9604 25.3999H47.0254V46.4666V67.5332H67.9604V88.5999H88.8954V67.5332V46.4666H67.9604V25.3999Z" fill="#C1D5FF"/>
<defs>
<clipPath id="clip0_4212_4427">
<rect width="70" height="70" fill="white" transform="translate(121.957 76.5) rotate(45)"/>
</clipPath>
<clipPath id="clip1_4212_4427">
<rect width="70" height="70" fill="white" transform="translate(11.0898 83.5) rotate(8.73423)"/>
</clipPath>
</defs>
</svg>
