<svg width="40" height="40" viewBox="0 0 40 40" fill="none" xmlns="http://www.w3.org/2000/svg">
<g id="decor-element">
<path id="Soft Flower" d="M20 2C15.2231 2 11.3507 5.87244 11.3507 10.6493C11.3507 11.0367 11.0367 11.3507 10.6493 11.3507C5.87244 11.3507 2 15.2231 2 20C2 24.7769 5.87244 28.6494 10.6493 28.6494C11.0367 28.6494 11.3507 28.9633 11.3507 29.3506C11.3507 34.1275 15.2231 38 20 38C24.7769 38 28.6494 34.1275 28.6494 29.3506C28.6494 28.9633 28.9633 28.6494 29.3506 28.6494C34.1275 28.6494 38 24.7769 38 20C38 15.2231 34.1275 11.3507 29.3506 11.3507C28.9633 11.3507 28.6494 11.0367 28.6494 10.6493C28.6494 5.87244 24.7769 2 20 2Z" fill="white"/>
</g>
</svg>
